<?xml version="1.0" encoding="utf-8"?>
<svg xmlns="http://www.w3.org/2000/svg" xmlns:xlink="http://www.w3.org/1999/xlink" style="margin: auto; background: none; display: block; shape-rendering: auto;" width="271px" height="271px" viewBox="0 0 100 100" preserveAspectRatio="xMidYMid">
<g transform="rotate(0 50 50)">
  <rect x="42.5" y="29" rx="0" ry="0" width="15" height="8" fill="#f56356">
    <animate attributeName="opacity" values="1;0" keyTimes="0;1" dur="0.47846889952153115s" begin="-0.42530568846358324s" repeatCount="indefinite"></animate>
  </rect>
</g><g transform="rotate(40 50 50)">
  <rect x="42.5" y="29" rx="0" ry="0" width="15" height="8" fill="#f56356">
    <animate attributeName="opacity" values="1;0" keyTimes="0;1" dur="0.47846889952153115s" begin="-0.37214247740563533s" repeatCount="indefinite"></animate>
  </rect>
</g><g transform="rotate(80 50 50)">
  <rect x="42.5" y="29" rx="0" ry="0" width="15" height="8" fill="#f56356">
    <animate attributeName="opacity" values="1;0" keyTimes="0;1" dur="0.47846889952153115s" begin="-0.3189792663476874s" repeatCount="indefinite"></animate>
  </rect>
</g><g transform="rotate(120 50 50)">
  <rect x="42.5" y="29" rx="0" ry="0" width="15" height="8" fill="#f56356">
    <animate attributeName="opacity" values="1;0" keyTimes="0;1" dur="0.47846889952153115s" begin="-0.2658160552897395s" repeatCount="indefinite"></animate>
  </rect>
</g><g transform="rotate(160 50 50)">
  <rect x="42.5" y="29" rx="0" ry="0" width="15" height="8" fill="#f56356">
    <animate attributeName="opacity" values="1;0" keyTimes="0;1" dur="0.47846889952153115s" begin="-0.21265284423179162s" repeatCount="indefinite"></animate>
  </rect>
</g><g transform="rotate(200 50 50)">
  <rect x="42.5" y="29" rx="0" ry="0" width="15" height="8" fill="#f56356">
    <animate attributeName="opacity" values="1;0" keyTimes="0;1" dur="0.47846889952153115s" begin="-0.1594896331738437s" repeatCount="indefinite"></animate>
  </rect>
</g><g transform="rotate(240 50 50)">
  <rect x="42.5" y="29" rx="0" ry="0" width="15" height="8" fill="#f56356">
    <animate attributeName="opacity" values="1;0" keyTimes="0;1" dur="0.47846889952153115s" begin="-0.10632642211589581s" repeatCount="indefinite"></animate>
  </rect>
</g><g transform="rotate(280 50 50)">
  <rect x="42.5" y="29" rx="0" ry="0" width="15" height="8" fill="#f56356">
    <animate attributeName="opacity" values="1;0" keyTimes="0;1" dur="0.47846889952153115s" begin="-0.053163211057947905s" repeatCount="indefinite"></animate>
  </rect>
</g><g transform="rotate(320 50 50)">
  <rect x="42.5" y="29" rx="0" ry="0" width="15" height="8" fill="#f56356">
    <animate attributeName="opacity" values="1;0" keyTimes="0;1" dur="0.47846889952153115s" begin="0s" repeatCount="indefinite"></animate>
  </rect>
</g>
<!-- [ldio] generated by https://loading.io/ --></svg>